# xmcd
#
# Track frame offsets:
#	150
#	16465
#	29025
#	47865
#	60807
#	74137
#	88277
#	106557
#	120922
#	134687
#	150615
#	165365
#	195060
#	209532
#
# Disc length: 2951 seconds
#
# Revision: 5
# Processed by: cddbd v1.5.2PL0 Copyright (c) Steve Scherf et al.
# Submitted via: EasyCDDAExtractor 15.2.5.1
#
DISCID=b90b850e
DTITLE=Cash, Nelson, Jennings and Kristofferson - The Highwaymen Ride Again (The
DTITLE=Last Cowboy Song)
DYEAR=1991
DGENRE=Country
TTITLE0=Cash, Nelson, Jennings and Kristofferson - The Twentieth Century Is Almo
TTITLE0=st Over
TTITLE1=Willie Nelson and Kris Kristofferson - How Do You Feel About Foolin' Aro
TTITLE1=und
TTITLE2=Johnny Cash and Waylon Jennings - Heroes
TTITLE3=Kris Kristofferson and  Willie Nelson - Down To Her Socks
TTITLE4=Willie Nelson and Waylon Jennings - Blackjack County Chains
TTITLE5=Johnny Cash - They're All The Same
TTITLE6=Willie Nelson - A Whiter Shade Of Pale
TTITLE7=Cash, Nelson, Jennings and Kristofferson - The Last Cowboy Song
TTITLE8=Johnny Cash and Waylon Jennings - The Ballad Of Forty Dollars
TTITLE9=Willie Nelson - The Pilgrim: Chapter 33
TTITLE10=Johnny Cash - Casey's Last Ride
TTITLE11=Kris Kristofferson and  Willie Nelson - Under The Gun
TTITLE12=Willie Nelson and Kris Kristofferson - Eye Of The Storm
TTITLE13=Willie Nelson and Waylon Jennings - Why Baby Why
EXTD=ID3G: 2
EXTT0=
EXTT1=Willie Nelson and Kris Kristofferson
EXTT2=Johnny Cash and Waylon Jennings
EXTT3=Kris Kristofferson and Willie Nelson
EXTT4=Willie Nelson and Waylon Jennings
EXTT5=Johnny Cash
EXTT6=Willie Nelson
EXTT7=
EXTT8=Johnny Cash and Waylon Jennings
EXTT9=Willie Nelson
EXTT10=Johnny Cash
EXTT11=Kris Kristofferson and Willie Nelson
EXTT12=Willie Nelson and Kris Kristofferson
EXTT13=Willie Nelson and Waylon Jennings
PLAYORDER=
